HIERARCHY
ROOT Hips
{
	OFFSET 0.00000 0.00000 0.00000
	CHANNELS 6 Xposition Yposition Zposition Zrotation Yrotation Xrotation 
	JOINT LHipJoint
	{
		OFFSET 0 0 0
		CHANNELS 3 Zrotation Yrotation Xrotation
		JOINT LeftUpLeg
		{
			OFFSET 1.38615 -1.80049 0.80104
			CHANNELS 3 Zrotation Yrotation Xrotation
			JOINT LeftLeg
			{
				OFFSET 2.50172 -6.87341 0.00000
				CHANNELS 3 Zrotation Yrotation Xrotation
				JOINT LeftFoot
				{
					OFFSET 2.67523 -7.35014 0.00000
					CHANNELS 3 Zrotation Yrotation Xrotation
					JOINT LeftToeBase
					{
						OFFSET 0.17446 -0.47932 2.13155
						CHANNELS 3 Zrotation Yrotation Xrotation
						End Site
						{
							OFFSET 0.00000 -0.00000 1.10023
						}
					}
				}
			}
		}
	}
	JOINT RHipJoint
	{
		OFFSET 0 0 0
		CHANNELS 3 Zrotation Yrotation Xrotation
		JOINT RightUpLeg
		{
			OFFSET -1.18047 -1.80049 0.80104
			CHANNELS 3 Zrotation Yrotation Xrotation
			JOINT RightLeg
			{
				OFFSET -2.59789 -7.13765 0.00000
				CHANNELS 3 Zrotation Yrotation Xrotation
				JOINT RightFoot
				{
					OFFSET -2.62125 -7.20183 0.00000
					CHANNELS 3 Zrotation Yrotation Xrotation
					JOINT RightToeBase
					{
						OFFSET -0.31287 -0.85960 2.07814
						CHANNELS 3 Zrotation Yrotation Xrotation
						End Site
						{
							OFFSET -0.00000 -0.00000 1.11766
						}
					}
				}
			}
		}
	}
	JOINT LowerBack
	{
		OFFSET 0 0 0
		CHANNELS 3 Zrotation Yrotation Xrotation
		JOINT Spine
		{
			OFFSET -0.01587 2.16157 -0.12309
			CHANNELS 3 Zrotation Yrotation Xrotation
			JOINT Spine1
			{
				OFFSET 0.04727 2.16674 -0.03569
				CHANNELS 3 Zrotation Yrotation Xrotation
				JOINT Neck
				{
					OFFSET 0 0 0
					CHANNELS 3 Zrotation Yrotation Xrotation
					JOINT Neck1
					{
						OFFSET -0.08586 1.60335 0.32783
						CHANNELS 3 Zrotation Yrotation Xrotation
						JOINT Head
						{
							OFFSET 0.07583 1.65857 -0.31618
							CHANNELS 3 Zrotation Yrotation Xrotation
							End Site
							{
								OFFSET 0.03386 1.69434 -0.14584
							}
						}
					}
				}
				JOINT LeftShoulder
				{
					OFFSET 0 0 0
					CHANNELS 3 Zrotation Yrotation Xrotation
					JOINT LeftArm
					{
						OFFSET 3.17393 1.01901 -0.52897
						CHANNELS 3 Zrotation Yrotation Xrotation
						JOINT LeftForeArm
						{
							OFFSET 5.25287 -0.00000 -0.00000
							CHANNELS 3 Zrotation Yrotation Xrotation
							JOINT LeftHand
							{
								OFFSET 3.51014 -0.00000 0.00000
								CHANNELS 3 Zrotation Yrotation Xrotation
								JOINT LeftFingerBase
								{
									OFFSET 0 0 0
									CHANNELS 3 Zrotation Yrotation Xrotation
									JOINT LeftHandIndex1
									{
										OFFSET 0.70618 -0.00000 -0.00000
										CHANNELS 3 Zrotation Yrotation Xrotation
										End Site
										{
											OFFSET 0.56934 -0.00000 -0.00000
										}
									}
								}
								JOINT LThumb
								{
									OFFSET 0 0 0
									CHANNELS 3 Zrotation Yrotation Xrotation
									End Site
									{
										OFFSET 0.57803 -0.00000 0.57803
									}
								}
							}
						}
					}
				}
				JOINT RightShoulder
				{
					OFFSET 0 0 0
					CHANNELS 3 Zrotation Yrotation Xrotation
					JOINT RightArm
					{
						OFFSET -2.99471 1.26495 -0.61125
						CHANNELS 3 Zrotation Yrotation Xrotation
						JOINT RightForeArm
						{
							OFFSET -5.28721 -0.00000 -0.00000
							CHANNELS 3 Zrotation Yrotation Xrotation
							JOINT RightHand
							{
								OFFSET -3.50544 -0.00000 0.00000
								CHANNELS 3 Zrotation Yrotation Xrotation
								JOINT RightFingerBase
								{
									OFFSET 0 0 0
									CHANNELS 3 Zrotation Yrotation Xrotation
									JOINT RightHandIndex1
									{
										OFFSET -0.88500 -0.00000 -0.00000
										CHANNELS 3 Zrotation Yrotation Xrotation
										End Site
										{
											OFFSET -0.71351 -0.00000 -0.00000
										}
									}
								}
								JOINT RThumb
								{
									OFFSET 0 0 0
									CHANNELS 3 Zrotation Yrotation Xrotation
									End Site
									{
										OFFSET -0.72440 -0.00000 0.72440
									}
								}
							}
						}
					}
				}
			}
		}
	}
}
MOTION
Frames: 9
Frame Time: .0083333
9.8937 16.6048 0.0640 -4.7913 -61.7910 10.9949 0.0000 0.0000 0.0000 3.9638 -3.9664 -24.8719 4.8645 13.2295 40.2339 1.1185 -11.3820 -19.3421 2.0351 -8.9389 -25.6043 0.0000 0.0000 0.0000 -1.4192 5.6213 -28.8983 -6.3542 -14.7630 46.3870 -0.7615 -2.0421 -17.3450 -1.7544 8.3345 -23.7348 -2.2375 1.3656 17.7227 0.9313 1.0366 9.6309 2.0674 0.2293 0.3148 -12.3126 -6.2611 -14.2983 11.0932 -6.6483 -7.8371 5.0353 -3.0502 0.7404 -0.0000 -0.0000 0.0000 -65.2779 31.7109 -10.8093 10.9293 -18.1798 -1.7538 -0.0000 -0.0000 25.0261 5.9190 51.4858 4.6377 -7.1250 0.0000 -0.0000 -64.8596 72.9409 -47.8646 -0.0000 -0.0000 0.0000 75.0563 -21.9681 -24.8856 -17.9194 28.0539 -4.5113 0.0000 0.0000 6.0815 -28.7791 19.4375 -10.3587 7.1250 -0.0000 -0.0000 -0.3002 -8.0492 -0.2552
9.8036 16.6044 -0.0345 -5.7584 -60.8398 12.0204 0.0000 0.0000 0.0000 4.9717 -4.4191 -24.9146 4.7372 13.0816 39.6745 1.1827 -10.2270 -19.6577 2.8689 -10.4797 -30.5445 0.0000 0.0000 0.0000 -0.9623 6.2632 -27.7244 -5.9254 -14.3556 44.6815 -0.8510 -0.4353 -17.5968 -2.2554 9.3789 -26.9880 -1.8502 1.3099 17.0616 1.0367 1.0493 9.6482 1.9633 0.2492 0.6767 -12.5330 -6.5553 -14.0983 11.4834 -7.0278 -7.7046 5.1650 -3.2330 0.8213 -0.0000 0.0000 0.0000 -65.1500 31.7725 -11.4351 10.8061 -17.9905 -1.7156 -0.0000 -0.0000 25.3033 6.2443 51.3487 4.8841 -7.1250 0.0000 -0.0000 -64.2427 73.0068 -47.3944 -0.0000 0.0000 0.0000 74.7506 -21.9376 -24.7466 -17.7718 27.8639 -4.4421 0.0000 0.0000 7.1323 -29.6239 18.2539 -10.0991 7.1250 -0.0000 -0.0000 -0.9909 -9.2044 -0.8198
9.7316 16.5898 -0.1554 -5.2884 -59.9060 11.5549 0.0000 0.0000 0.0000 5.4142 -5.2835 -24.6586 4.5999 12.9185 39.0641 1.0920 -10.7796 -19.0250 2.3987 -9.6513 -27.8547 0.0000 0.0000 0.0000 -1.1679 6.6459 -26.5660 -5.6110 -14.0405 43.3998 -0.9666 0.7154 -18.3581 -2.6124 10.0395 -29.1046 -2.4111 1.2831 17.0410 1.0693 0.9476 9.5890 2.3312 0.1815 0.6223 -13.1648 -6.8427 -13.6941 12.3031 -7.3528 -7.8101 5.5081 -3.3823 0.8361 0.0000 -0.0000 0.0000 -65.2484 31.9269 -12.8687 10.6713 -17.7826 -1.6741 -0.0000 -0.0000 25.9318 6.5800 51.4576 5.1553 -7.1250 0.0000 -0.0000 -64.3717 73.1713 -47.6920 0.0000 -0.0000 0.0000 74.2670 -21.9322 -24.7420 -17.7624 27.8518 -4.4377 0.0000 0.0000 7.9040 -30.1106 17.7412 -10.0215 7.1250 -0.0000 -0.0000 -1.3700 -9.6880 -1.1202
9.6755 16.5701 -0.2775 -4.4211 -59.1803 10.7644 0.0000 0.0000 0.0000 5.5559 -6.0001 -24.4468 4.4472 12.7329 38.3765 1.0219 -11.0589 -18.5119 2.0044 -8.8752 -25.4057 0.0000 0.0000 0.0000 -1.5321 6.7733 -25.8040 -5.4216 -13.8434 42.6137 -1.0523 1.1643 -19.0370 -2.5403 9.9109 -28.6885 -3.0584 1.3293 17.2945 1.0563 0.9211 9.4046 2.6858 0.1572 0.2898 -13.9509 -7.1626 -13.2153 13.0194 -7.7133 -7.9488 5.8445 -3.5500 0.8384 -0.0000 -0.0000 0.0000 -65.2325 32.1671 -13.7641 10.5523 -17.5988 -1.6380 -0.0000 -0.0000 26.3090 6.7095 51.8376 5.2846 -7.1250 0.0000 -0.0000 -65.4806 73.3604 -48.8871 -0.0000 -0.0000 0.0000 73.5438 -22.0374 -24.8749 -17.7652 27.8555 -4.4390 0.0000 0.0000 7.9888 -29.8677 18.1328 -10.1333 7.1250 -0.0000 -0.0000 -1.1636 -9.2945 -0.9606
9.6147 16.5606 -0.3941 -3.7111 -58.5325 10.1323 0.0000 0.0000 0.0000 5.6398 -6.6090 -24.1785 4.2781 12.5215 37.6027 1.0154 -10.4694 -18.3499 2.3906 -9.6361 -27.8063 0.0000 0.0000 0.0000 -1.7606 6.8161 -25.1613 -5.3431 -13.7601 42.2847 -1.1424 1.6379 -19.7272 -2.6357 10.0805 -29.2379 -3.3864 1.4457 17.5248 0.9521 1.0274 9.1981 2.7410 0.2163 -0.0593 -14.5021 -7.5496 -12.8807 13.5342 -8.1951 -7.8598 6.0612 -3.7807 0.9301 -0.0000 0.0000 0.0000 -64.6924 32.3436 -13.4978 10.4210 -17.3954 -1.5985 -0.0000 -0.0000 26.1495 6.6725 51.8986 5.2598 -7.1250 0.0000 -0.0000 -65.6943 73.3688 -49.0870 -0.0000 0.0000 0.0000 72.9355 -22.2752 -25.0401 -17.6375 27.6905 -4.3795 0.0000 0.0000 8.2245 -29.7352 18.2116 -10.1216 7.1250 -0.0000 -0.0000 -1.0680 -9.2311 -0.8830
9.5429 16.5631 -0.5176 -3.1557 -57.7397 9.4870 0.0000 0.0000 0.0000 5.8069 -7.3546 -23.6339 4.0855 12.2733 36.7058 0.9261 -10.3743 -17.5837 2.3520 -9.5638 -27.5754 0.0000 0.0000 0.0000 -1.7255 6.5713 -24.4474 -5.3425 -13.7595 42.2823 -1.2481 2.4396 -20.4546 -3.1559 10.9432 -32.0885 -3.8240 1.4343 17.7063 0.8030 0.9431 9.1372 2.8446 0.1698 -0.2129 -14.4345 -7.7658 -12.6887 13.8130 -8.5174 -7.8222 6.1142 -3.9467 0.9722 -0.0000 0.0000 0.0000 -64.2504 32.6226 -13.6857 10.3233 -17.2436 -1.5694 -0.0000 -0.0000 26.1017 6.4598 51.8023 5.0848 -7.1250 0.0000 -0.0000 -65.5149 73.2561 -48.8004 -0.0000 0.0000 0.0000 72.3056 -22.1842 -24.9921 -17.4871 27.4955 -4.3098 0.0000 0.0000 8.6751 -29.5975 17.8788 -9.8921 7.1250 -0.0000 -0.0000 -1.0201 -9.6280 -0.8352
9.4711 16.5603 -0.6483 -3.6366 -56.8312 9.8087 0.0000 0.0000 0.0000 6.6082 -7.8502 -23.2613 3.8720 11.9881 35.6899 0.8423 -10.1532 -16.8109 2.2644 -9.3963 -27.0430 0.0000 0.0000 0.0000 -0.9131 6.1546 -24.0373 -5.3835 -13.8031 42.4543 -1.3562 3.0554 -21.2262 -3.6104 11.6231 -34.4112 -3.6715 1.3102 17.6632 0.7044 0.8086 9.1740 2.6780 0.1098 -0.1391 -14.3577 -7.8361 -12.4755 14.2757 -8.6409 -7.9044 6.2435 -4.0149 0.9622 -0.0000 0.0000 0.0000 -63.7907 32.7210 -14.4007 10.2271 -17.0940 -1.5410 -0.0000 -0.0000 26.5628 6.2059 51.8576 4.8881 -7.1250 0.0000 -0.0000 -65.8353 73.1833 -49.0040 -0.0000 0.0000 0.0000 71.9392 -21.8447 -25.2225 -17.4678 27.4704 -4.3009 0.0000 0.0000 9.1429 -29.7069 17.5995 -9.7879 7.1250 -0.0000 -0.0000 -1.1252 -9.9203 -0.9147
9.4030 16.5472 -0.7863 -4.1604 -56.0815 10.4335 0.0000 0.0000 0.0000 7.5501 -8.2932 -23.0841 3.6517 11.6819 34.6158 0.7669 -10.0044 -16.0986 2.0587 -8.9873 -25.7556 0.0000 0.0000 0.0000 -0.0478 5.8535 -24.1018 -5.4353 -13.8578 42.6710 -1.4791 3.3733 -22.1438 -3.8669 11.9811 -35.6653 -3.4447 1.3212 17.4564 0.6525 0.8728 9.1264 2.4846 0.1546 -0.0862 -14.9954 -7.9953 -12.2066 15.1507 -8.8007 -7.8917 6.6147 -4.0813 1.0349 0.0000 -0.0000 0.0000 -63.1759 32.6199 -14.6202 10.1456 -16.9671 -1.5172 -0.0000 -0.0000 26.9741 6.0552 51.8822 4.7706 -7.1250 0.0000 -0.0000 -65.9986 73.1371 -49.0976 0.0000 -0.0000 0.0000 71.5853 -21.6482 -25.6406 -17.4339 27.4263 -4.2853 0.0000 0.0000 9.4792 -29.9172 17.2282 -9.6719 7.1250 -0.0000 -0.0000 -1.3073 -10.2984 -1.0528
9.3291 16.5433 -0.9332 -4.3032 -55.3164 10.7486 0.0000 0.0000 0.0000 8.3348 -8.8287 -22.9021 3.4342 11.3668 33.5270 0.6804 -10.0037 -15.2867 1.8059 -8.4494 -24.0877 0.0000 0.0000 0.0000 0.6805 5.5053 -24.2588 -5.4823 -13.9071 42.8667 -1.6191 3.4521 -23.1946 -3.8302 11.9310 -35.4884 -3.5464 1.4423 17.2494 0.7140 1.0332 9.1056 2.5810 0.2323 -0.0142 -15.8208 -8.3994 -12.1156 15.8877 -9.2533 -7.8309 6.9409 -4.2852 1.1937 0.0000 0.0000 0.0000 -62.6965 32.4250 -14.3943 10.0801 -16.8648 -1.4981 -0.0000 -0.0000 27.0767 6.6054 51.7470 5.1959 -7.1250 0.0000 -0.0000 -65.2568 73.2891 -48.6080 0.0000 0.0000 0.0000 70.8653 -21.5296 -25.8704 -17.2304 27.1605 -4.1920 0.0000 0.0000 9.5261 -29.8325 16.9270 -9.4789 7.1250 -0.0000 -0.0000 -1.2882 -10.6513 -1.0281
